<svg width="48" height="48" viewBox="0 0 48 48" fill="none" xmlns="http://www.w3.org/2000/svg">
  <rect width="48" height="48" rx="12" fill="#0a0a0a"/>
  <g transform="translate(24, 24)">
    <!-- Minimal rocket body -->
    <path d="M0 -14 C-6 -6 -7 4 -5 10 L5 10 C7 4 6 -6 0 -14Z" fill="white" opacity="0.95"/>
    <!-- Nose cone accent -->
    <path d="M0 -14 C-3 -9 -4 -4 -4 -2 C-2 -4 0 -6 0 -6 C0 -6 2 -4 4 -2 C4 -4 3 -9 0 -14Z" fill="#e11d48" opacity="0.9"/>
    <!-- Window dot -->
    <circle cx="0" cy="2" r="2.5" fill="#0a0a0a"/>
    <!-- Fins -->
    <path d="M-5 8 L-8 12 L-4 10Z" fill="#e11d48" opacity="0.8"/>
    <path d="M5 8 L8 12 L4 10Z" fill="#e11d48" opacity="0.8"/>
    <!-- Exhaust hint -->
    <rect x="-2" y="10" width="4" height="3" rx="1" fill="#e11d48" opacity="0.6"/>
  </g>
</svg>
