<svg width="512" height="512" viewBox="0 0 512 512" fill="none" xmlns="http://www.w3.org/2000/svg">
  <rect width="512" height="512" rx="108" fill="#111111"/>

  <!-- Flames -->
  <path d="M230 390 Q248 440 256 460 Q264 440 282 390" fill="#e11d48" opacity="0.7"/>
  <path d="M238 390 Q250 430 256 445 Q262 430 274 390" fill="#FFD700" opacity="0.8"/>
  <path d="M246 390 Q252 415 256 425 Q260 415 266 390" fill="white" opacity="0.6"/>

  <!-- Left Fin -->
  <path d="M190 340 L160 395 L215 370 Z" fill="#e11d48" stroke="#111" stroke-width="5" stroke-linejoin="round"/>
  <!-- Right Fin -->
  <path d="M322 340 L352 395 L297 370 Z" fill="#e11d48" stroke="#111" stroke-width="5" stroke-linejoin="round"/>

  <!-- Rocket Body -->
  <ellipse cx="256" cy="256" rx="75" ry="130" fill="white" stroke="#111" stroke-width="5"/>

  <!-- Nose Cone -->
  <path d="M188 190 Q256 60 324 190" fill="#e11d48" stroke="#111" stroke-width="5"/>
  <path d="M188 190 Q256 210 324 190" fill="#e11d48"/>

  <!-- Window -->
  <circle cx="256" cy="260" r="35" fill="#25F4EE" stroke="#111" stroke-width="5"/>
  <circle cx="256" cy="260" r="22" fill="#5EFCE8"/>
  <circle cx="264" cy="252" r="7" fill="white" opacity="0.8"/>

  <!-- Bottom Detail -->
  <path d="M220 360 Q256 378 292 360 L292 368 Q256 386 220 368 Z" fill="#25F4EE" stroke="#111" stroke-width="4"/>
</svg>
